<svg xmlns="http://www.w3.org/2000/svg" viewBox="0 0 32 32">
  <!-- Keyboard base with rounded corners -->
  <rect x="2" y="8" width="28" height="16" rx="3" fill="#2C3E50"/>
  
  <!-- Top row keys -->
  <rect x="4" y="10" width="3" height="2" rx="1" fill="#ECF0F1"/>
  <rect x="8" y="10" width="3" height="2" rx="1" fill="#ECF0F1"/>
  <rect x="12" y="10" width="3" height="2" rx="1" fill="#ECF0F1"/>
  <rect x="16" y="10" width="3" height="2" rx="1" fill="#ECF0F1"/>
  <rect x="20" y="10" width="3" height="2" rx="1" fill="#ECF0F1"/>
  <rect x="24" y="10" width="3" height="2" rx="1" fill="#ECF0F1"/>
  
  <!-- Middle row keys -->
  <rect x="5" y="14" width="3" height="2" rx="1" fill="#ECF0F1"/>
  <rect x="9" y="14" width="3" height="2" rx="1" fill="#ECF0F1"/>
  <rect x="13" y="14" width="3" height="2" rx="1" fill="#ECF0F1"/>
  <rect x="17" y="14" width="3" height="2" rx="1" fill="#ECF0F1"/>
  <rect x="21" y="14" width="3" height="2" rx="1" fill="#ECF0F1"/>
  
  <!-- Space bar -->
  <rect x="8" y="18" width="16" height="2" rx="1" fill="#ECF0F1"/>
</svg>